<svg width="570.8px" height="181.30872192382813px" xmlns="http://www.w3.org/2000/svg" viewBox="-35.39999999999998 -15.654360961914065 570.8 181.30872192382813" style="background: rgba(0, 0, 0, 0);" preserveAspectRatio="xMidYMid"><defs><filter id="editing-extrusion" x="-100%" y="-100%" width="300%" height="300%"><feFlood result="color1" flood-color="rgba(100%,100%,100%,0)"></feFlood><feConvolveMatrix order="1,1" divisor="1" kernelMatrix="1" in="SourceAlpha" result="extrude"></feConvolveMatrix><feComposite in="color1" in2="extrude" result="comp-extrude" operator="in"></feComposite><feOffset dx="0.5" dy="0.5" in="comp-extrude" result="offset-extrude"></feOffset><feMerge><feMergeNode in="offset-extrude"></feMergeNode><feMergeNode in="SourceGraphic"></feMergeNode></feMerge></filter></defs><g filter="url(#editing-extrusion)"><g transform="translate(45.29879283905029, 114.70656204223633)"><path d="M7.79-3.15L5.80-74.54L5.80-74.54Q5.75-75.75 6.03-76.49L6.03-76.49L6.03-76.49Q6.31-77.23 7.21-77.65L7.21-77.65L7.21-77.65Q8.12-78.07 9.79-78.23L9.79-78.23L9.79-78.23Q11.46-78.39 14.24-78.39L14.24-78.39L15.40-78.39L25.98-78.39L25.98-78.39Q30.75-78.39 34.86-77.54L34.86-77.54L34.86-77.54Q38.96-76.68 41.98-74.84L41.98-74.84L41.98-74.84Q45.00-73.01 46.69-70.16L46.69-70.16L46.69-70.16Q48.38-67.31 48.24-63.27L48.24-63.27L47.64-41.24L47.64-41.24Q47.59-39.48 47.11-37.67L47.11-37.67L47.11-37.67Q46.62-35.86 45.60-34.21L45.60-34.21L45.60-34.21Q44.58-32.56 42.98-31.13L42.98-31.13L42.98-31.13Q41.38-29.69 39.06-28.62L39.06-28.62L47.73-6.59L47.73-6.59Q48.38-4.92 48.73-3.87L48.73-3.87L48.73-3.87Q49.08-2.83 49.08-2.09L49.08-2.09L49.08-2.09Q49.08-1.53 48.89-1.14L48.89-1.14L48.89-1.14Q48.71-0.74 48.08-0.49L48.08-0.49L48.08-0.49Q47.45-0.23 46.29-0.12L46.29-0.12L46.29-0.12Q45.13 0 43.23 0L43.23 0L43.23 0Q41.38 0 40.24-0.16L40.24-0.16L40.24-0.16Q39.10-0.32 38.36-0.74L38.36-0.74L38.36-0.74Q37.62-1.16 37.13-1.88L37.13-1.88L37.13-1.88Q36.65-2.60 36.09-3.71L36.09-3.71L26.39-26.44L21.29-26.44L20.64-3.15L20.64-3.15Q20.64-2.09 20.43-1.46L20.43-1.46L20.43-1.46Q20.22-0.83 19.55-0.51L19.55-0.51L19.55-0.51Q18.88-0.19 17.63-0.09L17.63-0.09L17.63-0.09Q16.37 0 14.24 0L14.24 0L14.24 0Q12.11 0 10.83-0.09L10.83-0.09L10.83-0.09Q9.56-0.19 8.91-0.51L8.91-0.51L8.91-0.51Q8.26-0.83 8.05-1.46L8.05-1.46L8.05-1.46Q7.84-2.09 7.79-3.15L7.79-3.15ZM21.52-34.00L25.00-34.00L25.00-34.00Q27.23-34.00 28.71-34.35L28.71-34.35L28.71-34.35Q30.20-34.70 31.06-35.49L31.06-35.49L31.06-35.49Q31.91-36.27 32.26-37.60L32.26-37.60L32.26-37.60Q32.61-38.92 32.56-40.87L32.56-40.87L31.91-64.76L31.91-64.76Q31.87-66.56 31.54-67.66L31.54-67.66L31.54-67.66Q31.22-68.75 30.38-69.35L30.38-69.35L30.38-69.35Q29.55-69.95 28.13-70.16L28.13-70.16L28.13-70.16Q26.72-70.37 24.49-70.37L24.49-70.37L22.54-70.37L21.52-34.00ZM60.67-3.15L58.68-74.54L58.68-74.54Q58.63-75.75 58.91-76.49L58.91-76.49L58.91-76.49Q59.19-77.23 60.09-77.65L60.09-77.65L60.09-77.65Q61.00-78.07 62.67-78.23L62.67-78.23L62.67-78.23Q64.34-78.39 67.12-78.39L67.12-78.39L67.12-78.39Q67.91-78.39 68.63-78.39L68.63-78.39L68.63-78.39Q69.35-78.39 70.00-78.35L70.00-78.35L88.60-78.35L88.60-78.35Q89.80-78.35 90.48-78.16L90.48-78.16L90.48-78.16Q91.15-77.98 91.45-77.47L91.45-77.47L91.45-77.47Q91.75-76.96 91.82-76.07L91.82-76.07L91.82-76.07Q91.89-75.19 91.89-73.80L91.89-73.80L91.89-73.80Q91.89-72.41 91.82-71.51L91.82-71.51L91.82-71.51Q91.75-70.60 91.45-70.11L91.45-70.11L91.45-70.11Q91.15-69.63 90.48-69.44L90.48-69.44L90.48-69.44Q89.80-69.26 88.60-69.26L88.60-69.26L75.42-69.26L74.59-40.77L85.77-40.77L85.77-40.77Q86.98-40.77 87.65-40.59L87.65-40.59L87.65-40.59Q88.32-40.40 88.62-39.92L88.62-39.92L88.62-39.92Q88.92-39.43 88.99-38.57L88.99-38.57L88.99-38.57Q89.06-37.71 89.06-36.37L89.06-36.37L89.06-36.37Q89.06-35.02 88.99-34.16L88.99-34.16L88.99-34.16Q88.92-33.31 88.62-32.82L88.62-32.82L88.62-32.82Q88.32-32.33 87.65-32.15L87.65-32.15L87.65-32.15Q86.98-31.96 85.77-31.96L85.77-31.96L74.36-31.96L73.66-8.63L86.88-8.63L86.88-8.63Q88.09-8.63 88.76-8.42L88.76-8.42L88.76-8.42Q89.43-8.21 89.74-7.72L89.74-7.72L89.74-7.72Q90.04-7.24 90.11-6.40L90.11-6.40L90.11-6.40Q90.18-5.57 90.18-4.31L90.18-4.31L90.18-4.31Q90.18-3.06 90.11-2.23L90.11-2.23L90.11-2.23Q90.04-1.39 89.74-0.90L89.74-0.90L89.74-0.90Q89.43-0.42 88.76-0.21L88.76-0.21L88.76-0.21Q88.09 0 86.88 0L86.88 0L68.33 0L67.12 0L67.12 0Q64.99 0 63.71-0.09L63.71-0.09L63.71-0.09Q62.44-0.19 61.79-0.51L61.79-0.51L61.79-0.51Q61.14-0.83 60.93-1.46L60.93-1.46L60.93-1.46Q60.72-2.09 60.67-3.15L60.67-3.15ZM95.74-3.62L108.03-74.45L108.03-74.45Q108.22-75.75 108.66-76.58L108.66-76.58L108.66-76.58Q109.10-77.42 110.28-77.88L110.28-77.88L110.28-77.88Q111.47-78.35 113.69-78.51L113.69-78.51L113.69-78.51Q115.92-78.67 119.72-78.67L119.72-78.67L119.72-78.67Q123.48-78.67 125.71-78.51L125.71-78.51L125.71-78.51Q127.93-78.35 129.12-77.88L129.12-77.88L129.12-77.88Q130.30-77.42 130.72-76.58L130.72-76.58L130.72-76.58Q131.14-75.75 131.37-74.45L131.37-74.45L143.66-3.62L143.66-3.62Q143.85-2.37 143.64-1.65L143.64-1.65L143.64-1.65Q143.43-0.93 142.71-0.56L142.71-0.56L142.71-0.56Q141.99-0.19 140.74-0.09L140.74-0.09L140.74-0.09Q139.48 0 137.68 0L137.68 0L137.68 0Q135.45 0 134.13-0.09L134.13-0.09L134.13-0.09Q132.81-0.19 132.06-0.56L132.06-0.56L132.06-0.56Q131.32-0.93 130.97-1.65L130.97-1.65L130.97-1.65Q130.63-2.37 130.44-3.62L130.44-3.62L128.54-14.70L110.86-14.70L108.96-3.62L108.96-3.62Q108.73-2.37 108.41-1.65L108.41-1.65L108.41-1.65Q108.08-0.93 107.34-0.56L107.34-0.56L107.34-0.56Q106.60-0.19 105.27-0.09L105.27-0.09L105.27-0.09Q103.95 0 101.73 0L101.73 0L101.73 0Q99.92 0 98.69-0.09L98.69-0.09L98.69-0.09Q97.46-0.19 96.72-0.56L96.72-0.56L96.72-0.56Q95.97-0.93 95.74-1.65L95.74-1.65L95.74-1.65Q95.51-2.37 95.74-3.62L95.74-3.62ZM112.40-23.52L127.01-23.52L119.91-64.66L119.49-64.66L112.40-23.52ZM151.59-14.15L150.29-63.32L150.29-63.32Q150.20-66.80 151.45-69.67L151.45-69.67L151.45-69.67Q152.71-72.55 155.42-74.59L155.42-74.59L155.42-74.59Q158.13-76.63 162.42-77.77L162.42-77.77L162.42-77.77Q166.71-78.90 172.74-78.90L172.74-78.90L172.74-78.90Q178.73-78.90 183.02-77.77L183.02-77.77L183.02-77.77Q187.31-76.63 190.05-74.59L190.05-74.59L190.05-74.59Q192.78-72.55 194.04-69.67L194.04-69.67L194.04-69.67Q195.29-66.80 195.20-63.32L195.20-63.32L194.64-40.77L194.64-40.77Q194.59-39.38 194.22-38.52L194.22-38.52L194.22-38.52Q193.85-37.67 192.97-37.23L192.97-37.23L192.97-37.23Q192.09-36.78 190.63-36.65L190.63-36.65L190.63-36.65Q189.17-36.51 187.03-36.51L187.03-36.51L187.03-36.51Q184.85-36.51 183.41-36.65L183.41-36.65L183.41-36.65Q181.98-36.78 181.12-37.23L181.12-37.23L181.12-37.23Q180.26-37.67 179.89-38.52L179.89-38.52L179.89-38.52Q179.52-39.38 179.47-40.77L179.47-40.77L178.87-64.76L178.87-64.76Q178.82-66.80 178.40-68.00L178.40-68.00L178.40-68.00Q177.99-69.21 177.22-69.86L177.22-69.86L177.22-69.86Q176.46-70.51 175.34-70.72L175.34-70.72L175.34-70.72Q174.23-70.93 172.74-70.93L172.74-70.93L172.74-70.93Q171.26-70.93 170.15-70.72L170.15-70.72L170.15-70.72Q169.03-70.51 168.27-69.86L168.27-69.86L168.27-69.86Q167.50-69.21 167.08-68.00L167.08-68.00L167.08-68.00Q166.67-66.80 166.62-64.76L166.62-64.76L165.28-13.73L165.28-13.73Q165.23-11.78 165.62-10.48L165.62-10.48L165.62-10.48Q166.02-9.18 166.92-8.42L166.92-8.42L166.92-8.42Q167.83-7.65 169.27-7.33L169.27-7.33L169.27-7.33Q170.70-7.00 172.74-7.00L172.74-7.00L172.74-7.00Q174.79-7.00 176.25-7.33L176.25-7.33L176.25-7.33Q177.71-7.65 178.61-8.42L178.61-8.42L178.61-8.42Q179.52-9.18 179.89-10.48L179.89-10.48L179.89-10.48Q180.26-11.78 180.21-13.73L180.21-13.73L180.03-19.25L180.03-19.25Q179.98-20.64 180.33-21.50L180.33-21.50L180.33-21.50Q180.68-22.36 181.53-22.80L181.53-22.80L181.53-22.80Q182.39-23.24 183.83-23.38L183.83-23.38L183.83-23.38Q185.27-23.52 187.40-23.52L187.40-23.52L187.40-23.52Q189.49-23.52 190.81-23.38L190.81-23.38L190.81-23.38Q192.13-23.24 192.85-22.80L192.85-22.80L192.85-22.80Q193.57-22.36 193.80-21.50L193.80-21.50L193.80-21.50Q194.04-20.64 193.99-19.25L193.99-19.25L193.85-14.06L193.85-14.06Q193.76-11.04 192.55-8.37L192.55-8.37L192.55-8.37Q191.35-5.71 188.82-3.71L188.82-3.71L188.82-3.71Q186.29-1.72 182.32-0.58L182.32-0.58L182.32-0.58Q178.36 0.56 172.74 0.56L172.74 0.56L172.74 0.56Q167.13 0.56 163.14-0.60L163.14-0.60L163.14-0.60Q159.15-1.76 156.62-3.76L156.62-3.76L156.62-3.76Q154.10-5.75 152.89-8.44L152.89-8.44L152.89-8.44Q151.68-11.13 151.59-14.15L151.59-14.15ZM216.02-3.15L214.12-69.30L205.45-69.30L205.45-69.30Q204.24-69.30 203.57-69.49L203.57-69.49L203.57-69.49Q202.90-69.67 202.59-70.16L202.59-70.16L202.59-70.16Q202.29-70.65 202.22-71.55L202.22-71.55L202.22-71.55Q202.15-72.46 202.15-73.85L202.15-73.85L202.15-73.85Q202.15-75.24 202.22-76.12L202.22-76.12L202.22-76.12Q202.29-77.00 202.59-77.51L202.59-77.51L202.59-77.51Q202.90-78.02 203.57-78.21L203.57-78.21L203.57-78.21Q204.24-78.39 205.45-78.39L205.45-78.39L221.36-78.39L222.42-78.39L239.40-78.39L239.40-78.39Q240.61-78.39 241.28-78.21L241.28-78.21L241.28-78.21Q241.95-78.02 242.28-77.51L242.28-77.51L242.28-77.51Q242.60-77.00 242.67-76.12L242.67-76.12L242.67-76.12Q242.74-75.24 242.74-73.85L242.74-73.85L242.74-73.85Q242.74-72.46 242.67-71.55L242.67-71.55L242.67-71.55Q242.60-70.65 242.28-70.16L242.28-70.16L242.28-70.16Q241.95-69.67 241.28-69.49L241.28-69.49L241.28-69.49Q240.61-69.30 239.40-69.30L239.40-69.30L230.73-69.30L228.87-2.92L228.87-2.92Q228.83-1.99 228.62-1.44L228.62-1.44L228.62-1.44Q228.41-0.88 227.76-0.56L227.76-0.56L227.76-0.56Q227.11-0.23 225.83-0.12L225.83-0.12L225.83-0.12Q224.56 0 222.42 0L222.42 0L222.42 0Q220.29 0 219.04-0.09L219.04-0.09L219.04-0.09Q217.79-0.19 217.11-0.51L217.11-0.51L217.11-0.51Q216.44-0.83 216.25-1.46L216.25-1.46L216.25-1.46Q216.07-2.09 216.02-3.15L216.02-3.15ZM252.34-3.15L250.35-74.54L250.35-74.54Q250.30-75.75 250.58-76.49L250.58-76.49L250.58-76.49Q250.86-77.23 251.76-77.65L251.76-77.65L251.76-77.65Q252.67-78.07 254.34-78.23L254.34-78.23L254.34-78.23Q256.01-78.39 258.79-78.39L258.79-78.39L258.79-78.39Q259.58-78.39 260.30-78.39L260.30-78.39L260.30-78.39Q261.02-78.39 261.67-78.35L261.67-78.35L280.27-78.35L280.27-78.35Q281.47-78.35 282.15-78.16L282.15-78.16L282.15-78.16Q282.82-77.98 283.12-77.47L283.12-77.47L283.12-77.47Q283.42-76.96 283.49-76.07L283.49-76.07L283.49-76.07Q283.56-75.19 283.56-73.80L283.56-73.80L283.56-73.80Q283.56-72.41 283.49-71.51L283.49-71.51L283.49-71.51Q283.42-70.60 283.12-70.11L283.12-70.11L283.12-70.11Q282.82-69.63 282.15-69.44L282.15-69.44L282.15-69.44Q281.47-69.26 280.27-69.26L280.27-69.26L267.09-69.26L266.26-40.77L277.44-40.77L277.44-40.77Q278.65-40.77 279.32-40.59L279.32-40.59L279.32-40.59Q279.99-40.40 280.29-39.92L280.29-39.92L280.29-39.92Q280.59-39.43 280.66-38.57L280.66-38.57L280.66-38.57Q280.73-37.71 280.73-36.37L280.73-36.37L280.73-36.37Q280.73-35.02 280.66-34.16L280.66-34.16L280.66-34.16Q280.59-33.31 280.29-32.82L280.29-32.82L280.29-32.82Q279.99-32.33 279.32-32.15L279.32-32.15L279.32-32.15Q278.65-31.96 277.44-31.96L277.44-31.96L266.03-31.96L265.19-2.92L265.19-2.92Q265.19-1.99 264.98-1.44L264.98-1.44L264.98-1.44Q264.78-0.88 264.10-0.56L264.10-0.56L264.10-0.56Q263.43-0.23 262.18-0.12L262.18-0.12L262.18-0.12Q260.93 0 258.79 0L258.79 0L258.79 0Q256.66 0 255.38-0.09L255.38-0.09L255.38-0.09Q254.11-0.19 253.46-0.51L253.46-0.51L253.46-0.51Q252.81-0.83 252.60-1.46L252.60-1.46L252.60-1.46Q252.39-2.09 252.34-3.15L252.34-3.15ZM294.14-3.15L292.14-74.54L292.14-74.54Q292.10-75.75 292.38-76.49L292.38-76.49L292.38-76.49Q292.65-77.23 293.56-77.65L293.56-77.65L293.56-77.65Q294.46-78.07 296.13-78.23L296.13-78.23L296.13-78.23Q297.80-78.39 300.59-78.39L300.59-78.39L300.59-78.39Q303.32-78.39 304.99-78.23L304.99-78.23L304.99-78.23Q306.66-78.07 307.57-77.65L307.57-77.65L307.57-77.65Q308.47-77.23 308.77-76.49L308.77-76.49L308.77-76.49Q309.07-75.75 309.03-74.54L309.03-74.54L307.13-8.63L319.23-8.63L319.23-8.63Q320.44-8.63 321.11-8.42L321.11-8.42L321.11-8.42Q321.78-8.21 322.09-7.72L322.09-7.72L322.09-7.72Q322.39-7.24 322.46-6.40L322.46-6.40L322.46-6.40Q322.53-5.57 322.53-4.31L322.53-4.31L322.53-4.31Q322.53-3.06 322.46-2.23L322.46-2.23L322.46-2.23Q322.39-1.39 322.09-0.90L322.09-0.90L322.09-0.90Q321.78-0.42 321.11-0.21L321.11-0.21L321.11-0.21Q320.44 0 319.23 0L319.23 0L300.59 0L300.59 0Q298.45 0 297.18-0.09L297.18-0.09L297.18-0.09Q295.90-0.19 295.25-0.51L295.25-0.51L295.25-0.51Q294.60-0.83 294.39-1.46L294.39-1.46L294.39-1.46Q294.18-2.09 294.14-3.15L294.14-3.15ZM332.18-3.15L330.18-74.54L330.18-74.54Q330.13-75.75 330.41-76.49L330.41-76.49L330.41-76.49Q330.69-77.23 331.60-77.65L331.60-77.65L331.60-77.65Q332.50-78.07 334.17-78.23L334.17-78.23L334.17-78.23Q335.84-78.39 338.62-78.39L338.62-78.39L338.62-78.39Q341.36-78.39 343.03-78.23L343.03-78.23L343.03-78.23Q344.70-78.07 345.60-77.65L345.60-77.65L345.60-77.65Q346.51-77.23 346.81-76.49L346.81-76.49L346.81-76.49Q347.11-75.75 347.07-74.54L347.07-74.54L345.02-3.15L345.02-3.15Q345.02-2.09 344.82-1.46L344.82-1.46L344.82-1.46Q344.61-0.83 343.93-0.51L343.93-0.51L343.93-0.51Q343.26-0.19 342.01-0.09L342.01-0.09L342.01-0.09Q340.76 0 338.62 0L338.62 0L338.62 0Q336.49 0 335.21-0.09L335.21-0.09L335.21-0.09Q333.94-0.19 333.29-0.51L333.29-0.51L333.29-0.51Q332.64-0.83 332.43-1.46L332.43-1.46L332.43-1.46Q332.22-2.09 332.18-3.15L332.18-3.15ZM357.13-2.46L357.13-2.46L357.13-2.46Q357.13-3.15 357.39-4.04L357.39-4.04L357.39-4.04Q357.64-4.92 358.15-6.59L358.15-6.59L367.75-36.65L355.23-71.67L355.23-71.67Q354.81-72.97 354.53-73.87L354.53-73.87L354.53-73.87Q354.26-74.78 354.26-75.70L354.26-75.70L354.26-75.70Q354.26-76.58 354.63-77.12L354.63-77.12L354.63-77.12Q355.00-77.65 355.97-77.93L355.97-77.93L355.97-77.93Q356.95-78.21 358.62-78.30L358.62-78.30L358.62-78.30Q360.29-78.39 362.84-78.39L362.84-78.39L362.84-78.39Q365.39-78.39 366.92-78.30L366.92-78.30L366.92-78.30Q368.45-78.21 369.35-77.81L369.35-77.81L369.35-77.81Q370.26-77.42 370.68-76.61L370.68-76.61L370.68-76.61Q371.09-75.80 371.42-74.31L371.42-74.31L378.47-42.49L379.40-42.49L386.40-74.31L386.40-74.31Q386.73-75.80 387.14-76.61L387.14-76.61L387.14-76.61Q387.56-77.42 388.44-77.81L388.44-77.81L388.44-77.81Q389.32-78.21 390.85-78.30L390.85-78.30L390.85-78.30Q392.39-78.39 394.98-78.39L394.98-78.39L394.98-78.39Q397.53-78.39 399.20-78.30L399.20-78.30L399.20-78.30Q400.87-78.21 401.85-77.93L401.85-77.93L401.85-77.93Q402.82-77.65 403.22-77.12L403.22-77.12L403.22-77.12Q403.61-76.58 403.61-75.70L403.61-75.70L403.61-75.70Q403.61-74.78 403.31-73.89L403.31-73.89L403.31-73.89Q403.01-73.01 402.54-71.67L402.54-71.67L390.25-36.65L399.85-6.59L399.85-6.59Q400.36-4.87 400.62-4.01L400.62-4.01L400.62-4.01Q400.87-3.15 400.87-2.46L400.87-2.46L400.87-2.46Q400.87-1.90 400.69-1.44L400.69-1.44L400.69-1.44Q400.50-0.97 399.92-0.67L399.92-0.67L399.92-0.67Q399.34-0.37 398.28-0.19L398.28-0.19L398.28-0.19Q397.21 0 395.45 0L395.45 0L395.45 0Q393.59 0 392.39-0.14L392.39-0.14L392.39-0.14Q391.18-0.28 390.41-0.70L390.41-0.70L390.41-0.70Q389.65-1.11 389.18-1.83L389.18-1.83L389.18-1.83Q388.72-2.55 388.30-3.71L388.30-3.71L379.44-29.32L378.52-29.32L369.66-3.71L369.66-3.71Q369.24-2.55 368.77-1.83L368.77-1.83L368.77-1.83Q368.31-1.11 367.55-0.70L367.55-0.70L367.55-0.70Q366.78-0.28 365.60-0.14L365.60-0.14L365.60-0.14Q364.41 0 362.56 0L362.56 0L362.56 0Q360.80 0 359.73-0.19L359.73-0.19L359.73-0.19Q358.66-0.37 358.08-0.67L358.08-0.67L358.08-0.67Q357.50-0.97 357.32-1.44L357.32-1.44L357.32-1.44Q357.13-1.90 357.13-2.46Z" fill="#d31309"></path></g></g><style>text {
  font-size: 64px;
  font-family: Arial Black;
  dominant-baseline: central;
  text-anchor: middle;
}</style></svg>